<mxfile host="Electron" agent="Mozilla/5.0 (X11; Linux x86_64) AppleWebKit/537.36 (KHTML, like Gecko) draw.io/26.1.1 Chrome/132.0.6834.210 Electron/34.3.3 Safari/537.36" version="26.1.1">
  <diagram name="Page-1" id="zcnw0ZVCEeMGg24mnjsT">
    <mxGraphModel dx="347" dy="192" grid="1" gridSize="10" guides="1" tooltips="1" connect="1" arrows="1" fold="1" page="1" pageScale="1" pageWidth="850" pageHeight="1100" math="1" shadow="0">
      <root>
        <mxCell id="0" />
        <mxCell id="1" parent="0" />
        <mxCell id="9Do0JPYV8mhKfQ6Qy5AA-2" value="" style="ellipse;whiteSpace=wrap;html=1;aspect=fixed;fillColor=none;strokeColor=default;fontFamily=Times New Roman;fillStyle=solid;strokeWidth=0.5;" parent="1" vertex="1">
          <mxGeometry x="280" y="160" width="80" height="80" as="geometry" />
        </mxCell>
        <mxCell id="9Do0JPYV8mhKfQ6Qy5AA-3" value="" style="ellipse;whiteSpace=wrap;html=1;fillColor=none;strokeColor=default;fontFamily=Times New Roman;dashed=1;strokeWidth=0.5;fillStyle=auto;" parent="1" vertex="1">
          <mxGeometry x="280" y="190" width="80" height="20" as="geometry" />
        </mxCell>
        <mxCell id="9Do0JPYV8mhKfQ6Qy5AA-6" value="" style="endArrow=classicThin;startArrow=classicThin;html=1;rounded=0;startFill=1;endFill=1;strokeWidth=0.5;fontFamily=Times New Roman;fillColor=#f8cecc;strokeColor=#b85450;" parent="1" edge="1">
          <mxGeometry width="50" height="50" relative="1" as="geometry">
            <mxPoint x="270" y="200" as="sourcePoint" />
            <mxPoint x="370" y="200" as="targetPoint" />
          </mxGeometry>
        </mxCell>
        <mxCell id="9Do0JPYV8mhKfQ6Qy5AA-8" value="\(\ket{1}\)" style="whiteSpace=wrap;html=1;strokeWidth=0;fontSize=7;fillColor=none;strokeColor=none;fontFamily=Times New Roman;" parent="1" vertex="1">
          <mxGeometry x="315" y="250" width="10" height="10" as="geometry" />
        </mxCell>
        <mxCell id="9Do0JPYV8mhKfQ6Qy5AA-9" value="\(\ket{0}\)" style="whiteSpace=wrap;html=1;strokeWidth=0;fontSize=7;fillColor=none;strokeColor=none;fontFamily=Times New Roman;" parent="1" vertex="1">
          <mxGeometry x="315" y="140" width="10" height="10" as="geometry" />
        </mxCell>
        <mxCell id="5TCcjriUe1PBaIMsxyZt-3" value="\(\ket{-}\)" style="whiteSpace=wrap;html=1;strokeWidth=0;fontSize=7;fillColor=none;strokeColor=none;fontFamily=Times New Roman;" parent="1" vertex="1">
          <mxGeometry x="356" y="155" width="10" height="10" as="geometry" />
        </mxCell>
        <mxCell id="5TCcjriUe1PBaIMsxyZt-4" value="\(\ket{+}\)" style="whiteSpace=wrap;html=1;strokeWidth=0;fontSize=7;fillColor=none;strokeColor=none;fontFamily=Times New Roman;" parent="1" vertex="1">
          <mxGeometry x="274" y="236" width="10" height="10" as="geometry" />
        </mxCell>
        <mxCell id="5TCcjriUe1PBaIMsxyZt-5" value="\(\ket{i}\)" style="whiteSpace=wrap;html=1;strokeWidth=0;fontSize=7;fillColor=none;strokeColor=none;fontFamily=Times New Roman;" parent="1" vertex="1">
          <mxGeometry x="370" y="195" width="10" height="10" as="geometry" />
        </mxCell>
        <mxCell id="5TCcjriUe1PBaIMsxyZt-6" value="\(\ket{-i}\)" style="whiteSpace=wrap;html=1;strokeWidth=0;fontSize=7;fillColor=none;strokeColor=none;fontFamily=Times New Roman;" parent="1" vertex="1">
          <mxGeometry x="256" y="195" width="10" height="10" as="geometry" />
        </mxCell>
        <mxCell id="5TCcjriUe1PBaIMsxyZt-7" value="\(z\)-axis" style="whiteSpace=wrap;html=1;strokeWidth=0;fontSize=7;fillColor=none;strokeColor=none;fontFamily=Times New Roman;" parent="1" vertex="1">
          <mxGeometry x="318" y="168.5" width="25" height="5" as="geometry" />
        </mxCell>
        <mxCell id="5TCcjriUe1PBaIMsxyZt-9" value="\(y\)-axis" style="whiteSpace=wrap;html=1;strokeWidth=0;fontSize=7;fillColor=none;strokeColor=none;fontFamily=Times New Roman;" parent="1" vertex="1">
          <mxGeometry x="290" y="192" width="25" height="5" as="geometry" />
        </mxCell>
        <mxCell id="5TCcjriUe1PBaIMsxyZt-10" value="\(x\)-axis" style="whiteSpace=wrap;html=1;strokeWidth=0;fontSize=7;fillColor=none;strokeColor=none;fontFamily=Times New Roman;rotation=-45;" parent="1" vertex="1">
          <mxGeometry x="285" y="215" width="25" height="5" as="geometry" />
        </mxCell>
        <mxCell id="5TCcjriUe1PBaIMsxyZt-16" value="" style="endArrow=classic;html=1;rounded=0;entryX=0.834;entryY=0.864;entryDx=0;entryDy=0;entryPerimeter=0;strokeWidth=0.75;fillColor=#e1d5e7;strokeColor=#9673a6;" parent="1" target="9Do0JPYV8mhKfQ6Qy5AA-2" edge="1">
          <mxGeometry width="50" height="50" relative="1" as="geometry">
            <mxPoint x="320" y="200" as="sourcePoint" />
            <mxPoint x="310" y="180" as="targetPoint" />
          </mxGeometry>
        </mxCell>
        <mxCell id="9Do0JPYV8mhKfQ6Qy5AA-5" value="" style="endArrow=classicThin;startArrow=classicThin;html=1;rounded=0;startFill=1;endFill=1;strokeWidth=0.5;fontFamily=Times New Roman;" parent="1" edge="1">
          <mxGeometry width="50" height="50" relative="1" as="geometry">
            <mxPoint x="320" y="250" as="sourcePoint" />
            <mxPoint x="320" y="150" as="targetPoint" />
          </mxGeometry>
        </mxCell>
        <mxCell id="9Do0JPYV8mhKfQ6Qy5AA-7" value="" style="endArrow=classicThin;startArrow=classicThin;html=1;rounded=0;startFill=1;endFill=1;strokeWidth=0.5;fontFamily=Times New Roman;fillColor=#d5e8d4;strokeColor=#82b366;" parent="1" edge="1">
          <mxGeometry width="50" height="50" relative="1" as="geometry">
            <mxPoint x="285" y="235" as="sourcePoint" />
            <mxPoint x="355" y="165" as="targetPoint" />
          </mxGeometry>
        </mxCell>
        <mxCell id="5TCcjriUe1PBaIMsxyZt-17" value="\(\ket{\psi}\)" style="whiteSpace=wrap;html=1;strokeWidth=0;fontSize=7;fillColor=none;strokeColor=none;fontFamily=Times New Roman;" parent="1" vertex="1">
          <mxGeometry x="349" y="229" width="10" height="10" as="geometry" />
        </mxCell>
      </root>
    </mxGraphModel>
  </diagram>
</mxfile>
